<svg width="25" height="24" viewBox="0 0 25 24" fill="none" xmlns="http://www.w3.org/2000/svg">
<path d="M9.75 17V18C9.75 18.394 9.8276 18.7841 9.97836 19.1481C10.1291 19.512 10.3501 19.8427 10.6287 20.1213C10.9073 20.3999 11.238 20.6209 11.6019 20.7716C11.9659 20.9224 12.356 21 12.75 21C13.144 21 13.5341 20.9224 13.8981 20.7716C14.262 20.6209 14.5927 20.3999 14.8713 20.1213C15.1499 19.8427 15.3709 19.512 15.5216 19.1481C15.6724 18.7841 15.75 18.394 15.75 18V17" stroke="#898989" stroke-width="1.2" stroke-linecap="round" stroke-linejoin="round"/>
<path d="M20.75 17C20.75 17 18.75 12 18.75 9C18.75 5.732 16.018 3 12.75 3C9.482 3 6.75 5.732 6.75 9C6.75 13 4.75 17 4.75 17H20.75Z" stroke="#898989" stroke-width="1.2" stroke-linecap="round" stroke-linejoin="round"/>
</svg>
