<svg width="43" height="42" viewBox="0 0 43 42" fill="none" xmlns="http://www.w3.org/2000/svg">
<path d="M16.5 29.75V31.5C16.5 32.1895 16.6358 32.8722 16.8996 33.5092C17.1635 34.146 17.5502 34.7247 18.0377 35.2123C18.5253 35.6998 19.104 36.0866 19.7408 36.3503C20.3778 36.6142 21.0605 36.75 21.75 36.75C22.4395 36.75 23.1222 36.6142 23.7592 36.3503C24.396 36.0866 24.9747 35.6998 25.4623 35.2123C25.9498 34.7247 26.3366 34.146 26.6003 33.5092C26.8642 32.8722 27 32.1895 27 31.5V29.75" stroke="white" stroke-width="1.5" stroke-linecap="round" stroke-linejoin="round"/>
<path d="M35.75 29.75C35.75 29.75 32.25 21 32.25 15.75C32.25 10.031 27.469 5.25 21.75 5.25C16.031 5.25 11.25 10.031 11.25 15.75C11.25 22.75 7.75 29.75 7.75 29.75H35.75Z" stroke="white" stroke-width="1.5" stroke-linecap="round" stroke-linejoin="round"/>
</svg>
