<svg width="201" height="102" viewBox="0 0 201 102" fill="none" xmlns="http://www.w3.org/2000/svg">
<rect x="0.793945" y="76.1993" width="15.748" height="25.1968" rx="1" fill="white"/>
<rect x="0.793945" y="52.52" width="15.748" height="18.8976" rx="1" fill="white"/>
<rect x="21.2666" y="28.8411" width="15.748" height="18.8976" rx="1" fill="white"/>
<rect x="82.6836" y="16.6025" width="15.748" height="18.8976" rx="1" fill="white"/>
<rect x="21.2666" y="52.52" width="15.748" height="18.8976" rx="1" fill="white"/>
<rect x="82.6836" y="40.2812" width="15.748" height="18.8976" rx="1" fill="white"/>
<rect x="103.156" y="33.9254" width="15.748" height="18.8976" rx="1" fill="white"/>
<rect x="0.793945" y="35.9174" width="15.748" height="12.5984" rx="1" fill="white"/>
<rect x="21.2666" y="12.2388" width="15.748" height="12.5984" rx="1" fill="white"/>
<rect x="82.6836" width="15.748" height="12.5984" rx="1" fill="white"/>
<rect x="21.2666" y="89.2253" width="15.748" height="12.1711" rx="1" fill="white"/>
<rect x="62.2114" y="59.2463" width="15.748" height="12.1711" rx="1" fill="white"/>
<rect x="185.046" y="45.4338" width="15.748" height="12.1711" rx="1" fill="white"/>
<rect x="21.2666" y="76.1993" width="15.748" height="7.87402" rx="1" fill="white"/>
<rect x="82.6836" y="63.9608" width="15.748" height="14.1732" rx="1" fill="white"/>
<rect x="103.156" y="57.6047" width="15.748" height="14.1732" rx="1" fill="white"/>
<rect x="62.2114" y="46.2208" width="15.748" height="7.87402" rx="1" fill="white"/>
<rect x="185.046" y="32.4081" width="15.748" height="7.87402" rx="1" fill="white"/>
<rect x="123.628" y="66.2661" width="15.748" height="13.4425" rx="1" fill="white"/>
<rect x="144.101" y="71.4177" width="15.748" height="8.29127" rx="1" fill="white"/>
<rect x="164.573" y="41.8561" width="15.748" height="8.29127" rx="1" fill="white"/>
<rect x="41.7388" y="63.5437" width="15.748" height="7.87402" rx="1" fill="white"/>
<rect x="41.7388" y="76.1993" width="15.748" height="25.1968" rx="1" fill="white"/>
<rect x="62.2114" y="76.1993" width="15.748" height="25.1968" rx="1" fill="white"/>
<rect x="82.6836" y="84.0734" width="15.748" height="17.3228" rx="1" fill="white"/>
<rect x="103.156" y="76.1993" width="15.748" height="25.1968" rx="1" fill="white"/>
<rect x="123.628" y="84.0734" width="15.748" height="17.3228" rx="1" fill="white"/>
<rect x="144.101" y="84.0734" width="15.748" height="17.3228" rx="1" fill="white"/>
<rect x="164.573" y="54.512" width="15.748" height="17.3228" rx="1" fill="white"/>
<rect x="164.573" y="76.1993" width="15.748" height="25.1968" rx="1" fill="white"/>
<rect x="185.046" y="84.0734" width="15.748" height="17.3228" rx="1" fill="white"/>
<rect x="185.046" y="62.396" width="15.748" height="17.3228" rx="1" fill="white"/>
</svg>
