<!-- icon666.com - MILLIONS vector ICONS FREE --><svg viewBox="0 0 64 64" xmlns="http://www.w3.org/2000/svg"><g id="Layer_39" data-name="Layer 39"><path d="m56.43 54.59a1 1 0 0 1 -.35-.06l-24.43-9.23a1 1 0 1 1 .7-1.88l23.09 8.73.35-46.44-49.79 27.77 15.41 5.81a1 1 0 0 1 -.7 1.88l-17.43-6.58a1 1 0 0 1 -.65-.87 1 1 0 0 1 .51-.94l53.17-29.65a1 1 0 0 1 1.49.87l-.37 49.6a1 1 0 0 1 -.43.82 1.06 1.06 0 0 1 -.57.17z" fill="#000000" style="fill: rgb(255, 255, 255);"></path><path d="m32 45.36a1 1 0 0 1 -.52-.15 1 1 0 0 1 -.33-1.37l20.22-32.91-29.6 30a1 1 0 0 1 -1.42-1.4l35.74-36.23a1 1 0 0 1 1.56 1.22l-24.8 40.36a1 1 0 0 1 -.85.48z" fill="#000000" style="fill: rgb(255, 255, 255);"></path><path d="m32 61a1 1 0 0 1 -.87-.52l-10.95-19.77a1 1 0 1 1 1.75-1l9.07 16.42v-11.77a1 1 0 0 1 2 0v15.64a1 1 0 0 1 -.75 1 1.07 1.07 0 0 1 -.25 0z" fill="#000000" style="fill: rgb(255, 255, 255);"></path><path d="m32 61a1 1 0 0 1 -.51-.14 1 1 0 0 1 -.35-1.37l7.51-12.8a1 1 0 0 1 1.73 1l-7.52 12.82a1 1 0 0 1 -.86.49z" fill="#000000" style="fill: rgb(255, 255, 255);"></path></g></svg>