<svg width="42" height="42" viewBox="0 0 42 42" fill="none" xmlns="http://www.w3.org/2000/svg">
<path d="M19.25 5.25H22.75C23.7165 5.25 24.5 6.03351 24.5 7V7.99538C24.5 8.74403 25.0024 9.39444 25.6939 9.68149C26.3856 9.96866 27.191 9.85922 27.7205 9.32965L28.4245 8.62559C29.1079 7.94216 30.216 7.94216 30.8994 8.62559L33.3742 11.1005C34.0578 11.7839 34.0576 12.8919 33.3742 13.5753L32.6704 14.2793C32.1407 14.8089 32.0313 15.6143 32.3185 16.306C32.6055 16.9975 33.2559 17.5 34.0048 17.5H35C35.9665 17.5 36.75 18.2835 36.75 19.25V22.75C36.75 23.7165 35.9665 24.5 35 24.5H34.0046C33.256 24.5 32.6056 25.0024 32.3185 25.6939C32.0313 26.3856 32.1407 27.191 32.6704 27.7205L33.3742 28.4245C34.0578 29.1079 34.0578 30.216 33.3742 30.8994L30.8994 33.3742C30.216 34.0578 29.1079 34.0578 28.4245 33.3742L27.7205 32.6704C27.191 32.1407 26.3856 32.0313 25.6939 32.3185C25.0024 32.6056 24.5 33.256 24.5 34.0046V35C24.5 35.9665 23.7165 36.75 22.75 36.75H19.25C18.2835 36.75 17.5 35.9665 17.5 35V34.0048C17.5 33.2559 16.9975 32.6055 16.306 32.3185C15.6143 32.0313 14.8089 32.1407 14.2793 32.6704L13.5753 33.3742C12.8919 34.0578 11.7839 34.0578 11.1004 33.3742L8.62556 30.8994C7.94215 30.216 7.94215 29.1079 8.62556 28.4245L9.32965 27.7205C9.85922 27.191 9.96866 26.3856 9.68149 25.6939C9.39444 25.0024 8.74403 24.5 7.99538 24.5H7C6.03351 24.5 5.25 23.7165 5.25 22.75V19.25C5.25 18.2835 6.03351 17.5 7 17.5H7.99535C8.74401 17.5 9.39444 16.9975 9.68151 16.3061C9.9687 15.6144 9.85926 14.809 9.32965 14.2794L8.62559 13.5753C7.94216 12.8919 7.94216 11.7839 8.62559 11.1005L11.1005 8.62559C11.7839 7.94218 12.8919 7.94218 13.5753 8.62559L14.2794 9.32965C14.809 9.85926 15.6144 9.9687 16.3061 9.68151C16.9975 9.39444 17.5 8.74401 17.5 7.99533V7C17.5 6.03351 18.2835 5.25 19.25 5.25Z" stroke="#898989" stroke-width="1.5"/>
<path d="M24.5 21C24.5 22.933 22.933 24.5 21 24.5C19.067 24.5 17.5 22.933 17.5 21C17.5 19.067 19.067 17.5 21 17.5C22.933 17.5 24.5 19.067 24.5 21Z" stroke="#898989" stroke-width="1.5"/>
</svg>
